# xmcd
#
# Track frame offsets:
#	150
#	19685
#	39967
#	61838
#	77248
#	96303
#	117508
#	134460
#	156740
#	179252
#	206274
#	228648
#	255460
#	272949
#	307559
#	330339
#
# Disc length: 4748 seconds
#
# Revision: 1
# Processed by: cddbd v1.5.2PL0 Copyright (c) Steve Scherf et al.
# Submitted via: audiograbber 1.83.01
#
DISCID=d5128a10
DTITLE=Varios - Blues Way CD 8
DYEAR=2001
DGENRE=Blues
TTITLE0=Walter Trout Band - Sweet As a Flower
TTITLE1=Jay Owens - Who Is In Control
TTITLE2=Dr Feelgood - You Gotta Help Me
TTITLE3=Omar - Steady Rock
TTITLE4=Keb'mo - I Don`t Know
TTITLE5=Tommy Castro - Like An Angel
TTITLE6=Vargas Blues Band - Hot Wires
TTITLE7=Kenny Neal Debbie Davies Tab Benont - Liberta
TTITLE8=Larry Carner - Another Bad Day
TTITLE9=Gil Parris - A Rainy Night In Georgia
TTITLE10=Sherman Robertson - Out Of Sight Out Of Mind
TTITLE11=Mike Morgan - Cold Wind
TTITLE12=Colin James - Something Good
TTITLE13=Turning Blue - Pack Up Yuor Bags
TTITLE14=Rory Gallagher - I Ain`t So Saint
TTITLE15=Walter Trouth Band - Marie`s Mood
EXTD=
EXTT0=
EXTT1=
EXTT2=
EXTT3=
EXTT4=
EXTT5=
EXTT6=
EXTT7=
EXTT8=
EXTT9=
EXTT10=
EXTT11=
EXTT12=
EXTT13=
EXTT14=
EXTT15=
PLAYORDER=
